<svg width="128" height="128" viewBox="0 0 128 128" fill="none" xmlns="http://www.w3.org/2000/svg">
<rect width="128" height="128" rx="32" fill="#272727"/>
<mask id="mask0_10222_456" style="mask-type:luminance" maskUnits="userSpaceOnUse" x="13" y="16" width="99" height="89">
<path d="M111.082 16.2185H13.8496V104.442H111.082V16.2185Z" fill="white"/>
</mask>
<g mask="url(#mask0_10222_456)">
<path fill-rule="evenodd" clip-rule="evenodd" d="M38.7949 93.0831C47.7013 100.319 57.9904 104.442 68.9633 104.442C85.2812 104.442 100.094 95.2961 111.087 80.4003C106.446 74.1124 101.125 68.8456 95.2917 64.864L85.9262 69.5396C87.939 72.671 89.1115 76.399 89.1115 80.4003C89.1115 91.5147 80.0925 100.524 68.9633 100.524C60.316 100.524 52.9436 95.0811 50.0855 87.4402L38.7949 93.0782V93.0831ZM62.0308 81.4799C62.2552 82.9406 62.9393 84.2989 63.9996 85.3591C65.3139 86.673 67.1018 87.411 68.9633 87.4061C72.8376 87.4061 75.9789 84.2693 75.9789 80.4003C75.9789 78.4997 75.2217 76.7751 73.9904 75.5097L62.0357 81.4799H62.0308Z" fill="#2BAD72"/>
<path d="M41.3456 80.2438L109.611 47.4275L94.608 16.2185L86.8594 43.7975L77.5477 24.4214L69.7941 52.0004L60.4825 32.6242L52.7289 60.2033L43.4171 40.8271L35.6637 68.4062L26.3518 49.0301L13.8496 93.4643L30.9149 85.2614L41.3456 80.2487V80.2438Z" fill="#2BAD72"/>
</g>
</svg>